<?xml version="1.0" standalone="no"?>
<svg xmlns="http://www.w3.org/2000/svg" viewBox="0 0 168.144 29" width="168.144" height="29"><g fill="#ff7c7c" color="#ff7c7c" transform="translate(0, 0) scale(0.6041667)"><svg width="48.0" height="48.0" x="0.0" y="0.0" viewBox="0 0 48 48"><path fill="currentColor" fill-rule="evenodd" d="M21.088 35.003c-.108 0-.27 0-.432-.054-1.294-.27-1.294-1.403-1.348-2.212-.054-.862-.108-1.186-.54-1.887-.215-.324.054-.647.378-.647.054 0 .108 0 .216.054 1.402.7 3.344 1.887 3.29 3.182 0 .054-.216 1.564-1.564 1.564m-2.643-14.994c-.054.162-.162.27-.378.378a1.787 1.787 0 0 1-1.294 0c-.593-.27-1.133-.701-1.564-1.079-.701-.593-1.348-1.132-2.157-.97-.54.053-.971.377-1.349.97-.161.27-.27.594-.161.917.215.755 1.024 1.187 2.319 1.888 2.21 1.186 4.045 2.265 4.045 3.883v.431c0 .108-.054.162-.054.27 0 .054-.054.108-.054.162 0 .054-.054.108-.054.162-.054.107-.108.161-.216.27l-.162.161c-.431.324-1.024.485-1.564.485-.755 0-1.726-.323-1.887-1.294-.27-1.402-2.535-3.074-4.53-3.236-.972-.108-1.834.162-2.428.755l-.215.27c-.054.054-.108.162-.162.216-.054.107-.108.161-.162.27 0 .053-.054.053-.054.107-.054.054-.054.108-.108.216-.054 0-.054.054-.054.108-.054.054-.054.162-.054.215-.27 1.187 1.24 2.104 3.236 3.344 3.29 1.996 5.879 3.83 4.908 6.095-.216.485-.647.97-1.186 1.294a3.536 3.536 0 0 1-1.78.485c-1.24 0-2.265-.755-2.859-2.103-.593-1.348-1.294-2.05-2.103-2.05-.593 0-1.133.324-1.51.971-.162.378-.324.81-.324 1.295-1.833-3.236-2.912-7.011-2.912-10.949C1.618 11.596 11.649 1.564 24 1.564c1.672 0 3.344.162 4.962.54.593.162.809.54.917.863.161.539 0 1.186-.432 1.564-.377.377-.97.431-1.672.215-1.456-.431-2.912-.215-3.775.648-.593.593-.809 1.402-.54 2.157.216.647.918 1.726 3.29 2.157 1.834.324 3.183.216 4.854.108a54.109 54.109 0 0 1 3.29-.108c3.128 0 4.854 1.564 5.394 2.859.377.917.27 1.78-.324 2.373-1.186 1.186-4.207-.216-5.609-1.025-.162-.108-.27-.162-.431-.27-.378-.215-.863-.108-1.08.27-.215.378-.107.863.217 1.079.054.054.215.161.431.27 1.834 1.186 2.859 2.804 2.859 4.476 0 1.402-.755 2.642-2.05 3.451-1.025.594-1.941.648-2.643.054-.7-.593-.97-1.672-.593-2.696.378-1.133.216-2.212-.485-3.02-1.133-1.295-3.506-1.78-6.04-1.295-.162.054-.324.054-.432.108-.917.27-2.697.97-4.045 2.157-.485-1.618-2.157-2.642-3.506-3.397-.809-.486-1.887-1.133-1.887-1.51 0-.486.593-1.241 1.24-1.403.593-.162 1.133.216 1.618 1.025.755 1.348 2.157 2.265 3.398 2.157 1.025-.054 1.887-.647 2.373-1.726.377-.809.377-1.833.054-2.696-.27-.701-.917-1.618-2.427-2.212a.797.797 0 0 0-1.025.432.797.797 0 0 0 .432 1.025c.809.323 1.294.755 1.51 1.294.215.54.108 1.079 0 1.402-.216.54-.54.81-.971.81-.647.053-1.51-.54-1.942-1.349-1.186-2.103-2.804-1.942-3.397-1.78-1.349.324-2.481 1.672-2.481 2.966 0 1.295 1.294 2.05 2.642 2.859 1.996 1.186 3.236 2.05 2.75 3.613M23.947 0c1.834 0 3.614.216 5.34.594 1.078.215 1.833.97 2.103 1.995.27 1.079-.054 2.32-.863 3.128-.486.432-1.564 1.133-3.29.594-1.079-.324-1.834-.054-2.157.27-.108.107-.216.323-.162.539.108.377.701.862 2.05 1.078 1.671.27 2.912.216 4.476.108.97-.054 2.05-.108 3.397-.108 3.938 0 6.149 2.05 6.904 3.83.647 1.51.377 3.074-.647 4.098-1.025 1.025-2.481 1.079-3.884.755.54.917.81 1.888.81 2.913 0 1.995-1.025 3.775-2.859 4.854-1.564.97-3.236.97-4.476-.054-1.24-1.025-1.672-2.859-1.079-4.477.216-.593.108-1.078-.216-1.456-.72-.824-2.424-1.107-4.22-.802l-.256.047h-.054c-.054.054-.162.054-.216.108-1.186.54-2.48 3.236-2.373 6.256 0 1.672.432 5.77 4.369 7.227 1.78.701 3.505 1.025 5.123 1.025 2.75 0 5.07-.971 7.12-2.427 1.132-.755 2.21-1.726 3.235-2.697 2.178-2.333 3.708-4.966 4.014-6.891l.031-.228v-.054c0-.054.054-.108.054-.162 0 0 .03-.03.046-.068l.008-.04.108-.107.023-.023.085-.085s.054-.054.108-.054c.036 0 .072-.024.108-.04l.054-.014h.323c.054 0 .108.054.162.054 0 0 .03.03.068.045l.04.009.216.215s.053.054.053.108c0 .036.024.072.04.108l.014.054v.054c.216 1.348.324 2.157.324 3.667 0 12.868-10.202 23.41-23.07 23.881l-.39.012h-1.834c-1.618-.054-3.236-.27-4.746-.702-.122 0-.243-.03-.364-.068l-.122-.04h-.054c-.054 0-.108-.053-.162-.053C7.281 44.063 0 34.84 0 23.946 0 10.733 10.787-.054 23.946 0zm16.611 18.23c.378 0 .701.108 1.079.323 1.618 1.079 2.373 2.265 2.157 3.506 0 .108-.054.162-.054.216-.323.917-1.132 1.833-2.373 1.833-.27 0-.593-.054-.863-.161a2.387 2.387 0 0 1-1.51-1.618 3.42 3.42 0 0 1-.073-1.096l.02-.145v-.216c-.055 0-.055 0-.055-.054-.27-.539-.215-1.186.108-1.725.378-.54.917-.863 1.564-.863zm0 1.672c-.161 0-.27.161-.215.323.215.378.215.54.16 1.025-.053.431-.106 1.025.54 1.24a.687.687 0 0 0 .324.054c.594 0 .81-.7.81-.647.107-.701-.864-1.456-1.51-1.941 0-.054-.055-.054-.109-.054zM35.542 2.319c.754.108 3.073.378 3.667 2.104 0 .054.054.162.054.215.054.216.161 1.133-.432 1.942-.377.54-1.025.863-1.726.97h-.323c-.7 0-1.348-.269-1.834-.808-.323-.324-.485-.701-.593-.97v-.055c0-.054-.054-.108-.054-.108l-.054-.054c-.593-.431-.862-1.24-.647-1.995.216-.755.917-1.24 1.726-1.24zm-.162 1.564c-.216 0-.324.27-.216.378.378.27.485.431.648.809.161.377.376.863.97.863h.162c.868-.097.83-.84.812-.996l-.003-.029c-.216-.647-1.51-.917-2.373-1.025z"></path></svg></g><line x1="41" y1="1" x2="41" y2="28" stroke="#6183ff" stroke-linecap="round"></line><path fill="#6183ff" fill-rule="nonzero" d="M4.97 17.26L4.97 17.26Q3.65 17.26 2.28 16.93Q0.91 16.61 0 16.08L0 16.08L0.12 12.82L0.36 12.82L1.10 14.38Q1.44 15.05 1.82 15.56Q2.21 16.08 2.88 16.37L2.88 16.37Q3.36 16.61 3.80 16.69Q4.25 16.78 4.80 16.78L4.80 16.78Q6.26 16.78 7.12 15.98Q7.97 15.19 7.97 13.94L7.97 13.94Q7.97 12.77 7.39 12.11Q6.82 11.45 5.54 10.82L5.54 10.82L4.56 10.39Q2.50 9.48 1.33 8.29Q0.17 7.10 0.17 5.14L0.17 5.14Q0.17 3.72 0.90 2.69Q1.63 1.66 2.94 1.10Q4.25 0.55 6 0.55L6 0.55Q7.27 0.55 8.41 0.89Q9.55 1.22 10.39 1.80L10.39 1.80L10.25 4.68L10.01 4.68L9.02 2.88Q8.62 2.04 8.21 1.69Q7.80 1.34 7.27 1.20L7.27 1.20Q6.96 1.10 6.70 1.07Q6.43 1.03 6.02 1.03L6.02 1.03Q4.80 1.03 3.96 1.74Q3.12 2.45 3.12 3.65L3.12 3.65Q3.12 4.87 3.77 5.60Q4.42 6.34 5.66 6.91L5.66 6.91L6.77 7.39Q9.07 8.40 10.08 9.54Q11.09 10.68 11.09 12.48L11.09 12.48Q11.09 14.59 9.49 15.92Q7.90 17.26 4.97 17.26ZM18.22 17.18L18.22 17.18Q16.58 17.18 15.25 16.48Q13.92 15.77 13.14 14.41Q12.36 13.06 12.36 11.09L12.36 11.09Q12.36 9.14 13.21 7.76Q14.06 6.38 15.49 5.65Q16.92 4.92 18.62 4.92L18.62 4.92Q20.02 4.92 20.98 5.38Q21.94 5.83 22.44 6.56Q22.94 7.30 22.94 8.09L22.94 8.09Q22.94 8.76 22.54 9.13Q22.13 9.50 21.48 9.50L21.48 9.50Q20.78 9.50 20.35 9.00Q19.92 8.50 19.85 7.68L19.85 7.68Q19.82 7.15 19.87 6.78Q19.92 6.41 19.87 6.02L19.87 6.02Q19.78 5.62 19.57 5.48Q19.37 5.35 19.01 5.35L19.01 5.35Q17.54 5.35 16.74 6.62Q15.94 7.90 15.94 10.68L15.94 10.68Q15.94 13.10 16.84 14.39Q17.74 15.67 19.61 15.67L19.61 15.67Q20.74 15.67 21.43 15.26Q22.13 14.86 22.78 14.04L22.78 14.04L23.02 14.23Q22.42 15.65 21.17 16.42Q19.92 17.18 18.22 17.18ZM29.81 16.82L24.19 16.82L24.19 16.58L24.48 16.49Q25.34 16.20 25.34 15.29L25.34 15.29L25.34 2.47Q25.34 1.97 25.18 1.73Q25.01 1.49 24.53 1.37L24.53 1.37L24.17 1.27L24.17 1.03L28.39 0L28.78 0.22L28.68 3.60L28.68 6.60Q29.52 5.90 30.49 5.41Q31.46 4.92 32.64 4.92L32.64 4.92Q34.20 4.92 35.12 5.81Q36.05 6.70 36.05 8.54L36.05 8.54L36.05 15.31Q36.05 15.79 36.24 16.08Q36.43 16.37 36.91 16.51L36.91 16.51L37.10 16.58L37.10 16.82L31.49 16.82L31.49 16.58L31.78 16.51Q32.64 16.22 32.64 15.29L32.64 15.29L32.64 7.75Q32.64 6.79 32.32 6.43Q31.99 6.07 31.18 6.07L31.18 6.07Q30.65 6.07 30.02 6.28Q29.40 6.48 28.75 6.98L28.75 6.98L28.75 15.34Q28.75 16.27 29.62 16.54L29.62 16.54L29.81 16.58L29.81 16.82ZM44.11 17.18L44.11 17.18Q42.29 17.18 40.94 16.43Q39.60 15.67 38.87 14.28Q38.14 12.89 38.14 11.02L38.14 11.02Q38.14 9.14 38.92 7.78Q39.70 6.41 41.05 5.66Q42.41 4.92 44.11 4.92L44.11 4.92Q45.82 4.92 47.16 5.65Q48.50 6.38 49.28 7.75Q50.06 9.12 50.06 11.02L50.06 11.02Q50.06 12.91 49.33 14.29Q48.60 15.67 47.27 16.43Q45.94 17.18 44.11 17.18ZM44.11 16.70L44.11 16.70Q44.95 16.70 45.46 16.22Q45.96 15.74 46.19 14.52Q46.42 13.30 46.42 11.06L46.42 11.06Q46.42 8.81 46.19 7.58Q45.96 6.36 45.46 5.88Q44.95 5.40 44.11 5.40L44.11 5.40Q43.27 5.40 42.76 5.88Q42.24 6.36 42.01 7.58Q41.78 8.81 41.78 11.06L41.78 11.06Q41.78 13.30 42.01 14.52Q42.24 15.74 42.76 16.22Q43.27 16.70 44.11 16.70ZM57.19 17.18L57.19 17.18Q55.37 17.18 54.02 16.43Q52.68 15.67 51.95 14.28Q51.22 12.89 51.22 11.02L51.22 11.02Q51.22 9.14 52.00 7.78Q52.78 6.41 54.13 5.66Q55.49 4.92 57.19 4.92L57.19 4.92Q58.90 4.92 60.24 5.65Q61.58 6.38 62.36 7.75Q63.14 9.12 63.14 11.02L63.14 11.02Q63.14 12.91 62.41 14.29Q61.68 15.67 60.35 16.43Q59.02 17.18 57.19 17.18ZM57.19 16.70L57.19 16.70Q58.03 16.70 58.54 16.22Q59.04 15.74 59.27 14.52Q59.50 13.30 59.50 11.06L59.50 11.06Q59.50 8.81 59.27 7.58Q59.04 6.36 58.54 5.88Q58.03 5.40 57.19 5.40L57.19 5.40Q56.35 5.40 55.84 5.88Q55.32 6.36 55.09 7.58Q54.86 8.81 54.86 11.06L54.86 11.06Q54.86 13.30 55.09 14.52Q55.32 15.74 55.84 16.22Q56.35 16.70 57.19 16.70ZM70.01 16.82L64.27 16.82L64.27 16.58L64.56 16.49Q65.42 16.20 65.42 15.29L65.42 15.29L65.42 2.45Q65.42 1.97 65.23 1.72Q65.04 1.46 64.56 1.34L64.56 1.34L64.25 1.27L64.25 1.03L68.64 0L68.93 0.22L68.83 3.58L68.83 11.78Q68.83 12.67 68.84 13.55Q68.86 14.42 68.86 15.29L68.86 15.29Q68.86 15.77 69.05 16.07Q69.24 16.37 69.70 16.51L69.70 16.51L70.01 16.58L70.01 16.82ZM76.27 17.26L76.27 17.26Q74.95 17.26 73.58 16.93Q72.22 16.61 71.30 16.08L71.30 16.08L71.42 12.82L71.66 12.82L72.41 14.38Q72.74 15.05 73.13 15.56Q73.51 16.08 74.18 16.37L74.18 16.37Q74.66 16.61 75.11 16.69Q75.55 16.78 76.10 16.78L76.10 16.78Q77.57 16.78 78.42 15.98Q79.27 15.19 79.27 13.94L79.27 13.94Q79.27 12.77 78.70 12.11Q78.12 11.45 76.85 10.82L76.85 10.82L75.86 10.39Q73.80 9.48 72.64 8.29Q71.47 7.10 71.47 5.14L71.47 5.14Q71.47 3.72 72.20 2.69Q72.94 1.66 74.24 1.10Q75.55 0.55 77.30 0.55L77.30 0.55Q78.58 0.55 79.72 0.89Q80.86 1.22 81.70 1.80L81.70 1.80L81.55 4.68L81.31 4.68L80.33 2.88Q79.92 2.04 79.51 1.69Q79.10 1.34 78.58 1.20L78.58 1.20Q78.26 1.10 78 1.07Q77.74 1.03 77.33 1.03L77.33 1.03Q76.10 1.03 75.26 1.74Q74.42 2.45 74.42 3.65L74.42 3.65Q74.42 4.87 75.07 5.60Q75.72 6.34 76.97 6.91L76.97 6.91L78.07 7.39Q80.38 8.40 81.38 9.54Q82.39 10.68 82.39 12.48L82.39 12.48Q82.39 14.59 80.80 15.92Q79.20 17.26 76.27 17.26ZM87.91 17.18L87.91 17.18Q86.98 17.18 86.20 16.82Q85.42 16.46 84.97 15.66Q84.53 14.86 84.55 13.54L84.55 13.54L84.62 7.37Q84.62 6.82 84.43 6.58Q84.24 6.34 83.83 6.24L83.83 6.24L83.54 6.14L83.54 5.90L87.84 5.06L88.08 5.30L87.96 8.71L87.96 14.50Q87.96 15.26 88.40 15.62Q88.85 15.98 89.52 15.98L89.52 15.98Q90.19 15.98 90.72 15.79Q91.25 15.60 91.78 15.22L91.78 15.22L91.87 7.39Q91.87 6.84 91.70 6.61Q91.54 6.38 91.08 6.29L91.08 6.29L90.84 6.22L90.84 5.98L95.04 5.06L95.28 5.30L95.21 8.71L95.21 15.22Q95.21 15.74 95.35 16.03Q95.50 16.32 95.98 16.51L95.98 16.51L96.22 16.58L96.22 16.82L92.02 17.06L91.80 15.65Q91.01 16.30 90.08 16.74Q89.16 17.18 87.91 17.18ZM102.82 16.82L97.18 16.82L97.18 16.58L97.51 16.49Q97.97 16.37 98.15 16.08Q98.33 15.79 98.35 15.31L98.35 15.31L98.35 7.80Q98.35 7.27 98.18 7.02Q98.02 6.77 97.54 6.67L97.54 6.67L97.18 6.58L97.18 6.34L101.28 4.94L101.52 5.18L101.71 6.82Q102.50 6.02 103.52 5.47Q104.54 4.92 105.65 4.92L105.65 4.92Q106.80 4.92 107.50 5.39Q108.19 5.86 108.55 6.84L108.55 6.84Q109.49 5.95 110.58 5.44Q111.67 4.92 112.70 4.92L112.70 4.92Q114.41 4.92 115.21 5.74Q116.02 6.55 116.02 8.30L116.02 8.30L116.02 15.34Q116.02 16.27 116.88 16.51L116.88 16.51L117.14 16.58L117.14 16.82L111.60 16.82L111.60 16.58L111.84 16.51Q112.30 16.37 112.48 16.08Q112.66 15.79 112.66 15.31L112.66 15.31L112.66 7.97Q112.66 6.96 112.30 6.59Q111.94 6.22 111.14 6.22L111.14 6.22Q110.52 6.22 109.93 6.49Q109.34 6.77 108.70 7.32L108.70 7.32Q108.82 7.70 108.85 8.16Q108.89 8.62 108.89 9.12L108.89 9.12L108.89 15.34Q108.91 16.27 109.75 16.51L109.75 16.51L109.97 16.58L109.97 16.82L104.40 16.82L104.40 16.58L104.74 16.49Q105.19 16.34 105.37 16.07Q105.55 15.79 105.55 15.31L105.55 15.31L105.55 7.99Q105.55 7.03 105.20 6.62Q104.86 6.22 104.02 6.22L104.02 6.22Q103.46 6.22 102.91 6.49Q102.36 6.77 101.76 7.30L101.76 7.30L101.76 15.34Q101.76 16.27 102.60 16.51L102.60 16.51L102.82 16.58L102.82 16.82Z" transform="translate(51, 5.872)"></path></svg>